<?xml version="1.0" encoding="UTF-8"?>
<svg version="1.1" xmlns="http://www.w3.org/2000/svg" width="512" height="512">
<path d="M0 0 C1.26642334 -0.01772461 2.53284668 -0.03544922 3.83764648 -0.05371094 C5.64084351 -0.05226074 5.64084351 -0.05226074 7.48046875 -0.05078125 C8.55578857 -0.05376221 9.6311084 -0.05674316 10.73901367 -0.05981445 C16.98355099 0.69663319 20.76614739 3.75756493 24.5546875 8.48828125 C27.77656172 13.16099945 28.30045059 17.74986326 27.8125 23.3125 C25.73051685 29.55844944 22.81208343 34.60377178 16.98046875 37.92578125 C11.39151045 40.18378446 5.3184448 39.98360861 -0.625 40.25 C-60.43369817 43.74567847 -115.09436833 68.93581901 -155.18359375 113.8125 C-192.89814421 157.13940786 -211.50182856 214.45866377 -207.98535156 271.59716797 C-205.58387844 301.68807932 -197.61027565 330.75886133 -183.1875 357.3125 C-182.83574707 357.97443359 -182.48399414 358.63636719 -182.12158203 359.31835938 C-155.08193081 410.11644572 -108.26499036 446.8825723 -53.52172852 463.80151367 C0.18669059 479.61720969 59.53541415 474.07765873 108.8125 447.3125 C109.47443359 446.96074707 110.13636719 446.60899414 110.81835938 446.24658203 C161.61458777 419.20791979 198.36250238 372.3815827 215.30126953 317.65112305 C220.7521626 299.11493987 223.21720909 280.38859453 223.95410156 261.10742188 C224.33770474 253.22054048 225.16683212 247.06497456 230.8125 241.25390625 C231.4725 240.79886719 232.1325 240.34382812 232.8125 239.875 C233.4725 239.40191406 234.1325 238.92882812 234.8125 238.44140625 C239.48645979 235.80317504 244.57250907 235.67470651 249.796875 236.703125 C255.75725866 238.50510146 259.30560595 242.27070449 262.8125 247.3125 C268.06124442 263.05873327 263.78771161 285.20144846 260.8125 301.3125 C260.65152832 302.21564941 260.49055664 303.11879883 260.32470703 304.04931641 C253.12102294 343.48619984 236.48249392 380.73414548 211.8125 412.3125 C211.05324219 413.28445313 210.29398437 414.25640625 209.51171875 415.2578125 C197.17736402 430.63741644 183.37645499 445.19015196 167.8125 457.3125 C166.87664062 458.07691406 165.94078125 458.84132813 164.9765625 459.62890625 C133.02378299 485.2157721 93.85738322 501.72551276 53.8125 509.3125 C53.00312988 509.47621094 52.19375977 509.63992188 51.35986328 509.80859375 C21.31860013 515.67977137 -13.3240176 514.58512909 -43.1875 508.3125 C-44.71044678 507.99901611 -44.71044678 507.99901611 -46.26416016 507.67919922 C-83.40796555 499.78695344 -118.27195445 483.68345578 -148.1875 460.3125 C-149.15945312 459.55324219 -150.13140625 458.79398437 -151.1328125 458.01171875 C-166.51241644 445.67736402 -181.06515196 431.87645499 -193.1875 416.3125 C-194.33412109 414.90871094 -194.33412109 414.90871094 -195.50390625 413.4765625 C-221.0907721 381.52378299 -237.60051276 342.35738322 -245.1875 302.3125 C-245.35121094 301.50312988 -245.51492187 300.69375977 -245.68359375 299.85986328 C-251.15319558 271.87335724 -251.03227511 238.21828161 -245.1875 210.3125 C-244.98882324 209.33764648 -244.79014648 208.36279297 -244.58544922 207.35839844 C-234.49848313 159.13741149 -212.46161449 114.53770064 -177.96972656 79.14160156 C-176.19551167 77.32072238 -174.43768486 75.48496071 -172.6796875 73.6484375 C-165.58082106 66.31138736 -158.16932072 59.74213624 -149.98046875 53.64794922 C-148.14342428 52.27967127 -146.32161069 50.89264471 -144.5 49.50390625 C-136.07327324 43.13790222 -127.37846417 37.50688619 -118.1875 32.3125 C-117.55714844 31.94946777 -116.92679688 31.58643555 -116.27734375 31.21240234 C-90.43422575 16.41786989 -61.48786877 7.18108381 -32.1875 2.3125 C-31.51332031 2.19535645 -30.83914062 2.07821289 -30.14453125 1.95751953 C-20.13562148 0.27688174 -10.13273181 0.087529 0 0 Z " fill="#00FF00" transform="translate(248.1875,-0.3125)"/>
<path d="M0 0 C5.6634645 2.60413508 9.27017887 6.48962193 11.65234375 12.2734375 C11.98828125 15.26171875 11.98828125 15.26171875 12.02734375 18.5859375 C12.05570312 19.67519531 12.0840625 20.76445313 12.11328125 21.88671875 C10.99149285 30.1290115 4.97981834 35.37092515 -0.67132568 40.96459961 C-1.51847775 41.81502051 -2.36562981 42.66544142 -3.23845315 43.54163265 C-5.58014023 45.88932534 -7.92833861 48.23013332 -10.27958822 50.56822538 C-12.81818617 53.09589365 -15.3480855 55.63224278 -17.87908936 58.16751099 C-22.83479444 63.1288423 -27.7984213 68.08217434 -32.76474258 73.03287625 C-38.55240993 78.80297885 -44.33198498 84.58115882 -50.11120346 90.35972154 C-60.42712264 100.67395344 -70.7500825 110.98110945 -81.07714844 121.28417969 C-91.0884469 131.27223315 -101.09520082 141.26480885 -111.09667969 151.26269531 C-111.71240065 151.87819351 -112.32812161 152.4936917 -112.96250078 153.12784135 C-114.20296224 154.3678602 -115.44342341 155.60787934 -116.68388428 156.84789878 C-117.2958602 157.45965514 -117.90783613 158.0714115 -118.53835678 158.70170593 C-119.14882685 159.31196001 -119.75929691 159.92221409 -120.38826607 160.55096072 C-129.93137771 170.09036574 -139.47831443 179.62594209 -149.02577524 189.16099399 C-152.48076015 192.61155279 -155.93525287 196.06260344 -159.38940212 199.51399875 C-164.87103621 204.99118869 -170.35434841 210.46668729 -175.84101459 215.93883681 C-178.34647706 218.43771988 -180.85118856 220.93734236 -183.35375977 223.43912125 C-186.07180973 226.15623208 -188.79373684 228.86943784 -191.51605225 231.58227539 C-192.29933828 232.36642791 -193.08262432 233.15058043 -193.88964629 233.95849514 C-198.03128855 238.07858119 -202.25755732 242.03598566 -206.69142729 245.84079331 C-208.64744758 247.53275811 -210.48706329 249.3112038 -212.29760742 251.1574707 C-212.96157028 251.83119217 -213.62553314 252.50491364 -214.30961609 253.1990509 C-215.3397155 254.25100899 -215.3397155 254.25100899 -216.390625 255.32421875 C-217.89098999 256.84207968 -219.39164958 258.35964946 -220.89257812 259.87695312 C-223.22621232 262.2416597 -225.55740841 264.60862919 -227.88354492 266.98071289 C-230.15001187 269.28946379 -232.42578541 271.58869882 -234.703125 273.88671875 C-235.39593063 274.59814529 -236.08873627 275.30957184 -236.80253601 276.04255676 C-242.01995741 281.28751411 -245.7179959 283.55672066 -253.28515625 283.5859375 C-254.28417969 283.60269531 -255.28320312 283.61945313 -256.3125 283.63671875 C-263.17731619 282.81506121 -267.2066296 278.83992865 -271.78515625 274.0859375 C-272.31947266 273.54646484 -272.85378906 273.00699219 -273.40429688 272.45117188 C-276.93263016 268.85506748 -280.26036921 265.11211307 -283.55981445 261.30639648 C-286.53201597 257.92669936 -289.62990182 254.66748574 -292.72265625 251.3984375 C-297.54157907 246.28300179 -302.3047799 241.13033284 -306.984375 235.88671875 C-310.02686793 232.52237533 -313.12312522 229.21018569 -316.22265625 225.8984375 C-322.30833583 219.39608662 -328.34095978 212.84881529 -334.34765625 206.2734375 C-336.1593137 204.29349837 -337.97203409 202.31453534 -339.78515625 200.3359375 C-340.23584473 199.84399902 -340.6865332 199.35206055 -341.15087891 198.84521484 C-344.05446487 195.67794743 -346.96597165 192.51813809 -349.88330078 189.36352539 C-350.89593539 188.26750306 -351.90734292 187.17034564 -352.91748047 186.07202148 C-355.33269186 183.44625928 -357.75941664 180.83472495 -360.22265625 178.25390625 C-370.26076074 167.58842023 -370.26076074 167.58842023 -370.78515625 158.8984375 C-370.51630256 152.82854845 -368.85652524 147.66689851 -364.39453125 143.41015625 C-359.28988968 139.67091705 -354.67191677 137.94863437 -348.34765625 138.2734375 C-341.29044652 139.67082571 -337.02741458 142.761033 -332.22265625 147.9609375 C-331.61357422 148.59523682 -331.00449219 149.22953613 -330.37695312 149.88305664 C-326.9161269 153.51069767 -323.54358109 157.21094533 -320.30078125 161.03515625 C-317.47743344 164.27071284 -314.53424295 167.39076649 -311.59765625 170.5234375 C-305.4685976 177.06606395 -299.39417832 183.65446364 -293.34765625 190.2734375 C-291.53599881 192.25337662 -289.72330779 194.23236658 -287.91015625 196.2109375 C-287.45801758 196.70432617 -287.00587891 197.19771484 -286.54003906 197.70605469 C-283.17046349 201.38087136 -279.79229656 205.04768423 -276.41015625 208.7109375 C-275.91644531 209.24589844 -275.42273438 209.78085937 -274.9140625 210.33203125 C-272.31267174 213.1496415 -269.70757124 215.9637204 -267.09765625 218.7734375 C-266.56390381 219.34908447 -266.03015137 219.92473145 -265.48022461 220.51782227 C-264.46926543 221.60801071 -263.45714842 222.69712719 -262.44360352 223.78491211 C-259.29005071 227.18842494 -256.29236839 230.68740874 -253.34765625 234.2734375 C-248.17021353 229.94265795 -243.33333185 225.39743002 -238.57435608 220.61366272 C-237.44679096 219.48632089 -237.44679096 219.48632089 -236.29644674 218.33620447 C-233.79168515 215.83075138 -231.29051076 213.32174829 -228.78930664 210.81274414 C-226.98869215 209.01020943 -225.18784907 207.20790304 -223.38679504 205.4058075 C-219.5151006 201.53095653 -215.644908 197.65461526 -211.77601814 193.77696419 C-206.17413911 188.16249377 -200.5689902 182.55129676 -194.96295946 176.94097214 C-185.85546426 167.82641833 -176.74983917 158.70999885 -167.64575195 149.59204102 C-167.10153583 149.04699708 -166.55731971 148.50195314 -165.99661218 147.94039273 C-161.58193164 143.51896882 -157.16734189 139.09745427 -152.75275707 134.67593479 C-148.89519079 130.81231609 -145.03758861 126.94873323 -141.17993164 123.08520508 C-140.63668674 122.54113205 -140.09344185 121.99705903 -139.53373498 121.43649895 C-130.46352096 112.35258107 -121.39132967 103.27064037 -112.31773561 94.1900987 C-106.72851583 88.59640824 -101.14107649 83.00095066 -95.55595242 77.4031707 C-91.27342851 73.11119561 -86.98834396 68.82178645 -82.70232964 64.53329659 C-80.94872062 62.77781887 -79.19597462 61.02147856 -77.44416809 59.26420212 C-75.04774639 56.86053516 -72.64822385 54.46000537 -70.24794006 52.06019592 C-69.56008315 51.36874404 -68.87222623 50.67729217 -68.16352516 49.9648872 C-64.25152004 46.06112116 -60.23117526 42.34358469 -56.0396772 38.7409274 C-54.04628015 37.01205399 -52.16949353 35.19673125 -50.32177734 33.31347656 C-49.64102142 32.62296204 -48.9602655 31.93244751 -48.25888062 31.2210083 C-47.55341095 30.50096619 -46.84794128 29.78092407 -46.12109375 29.0390625 C-44.5797151 27.48018391 -43.0380397 25.9215987 -41.49609375 24.36328125 C-39.09888458 21.93503546 -36.7041067 19.50453065 -34.31445312 17.06884766 C-31.98593277 14.6979646 -29.64803725 12.33666119 -27.30859375 9.9765625 C-26.59907562 9.24842346 -25.8895575 8.52028442 -25.15853882 7.77008057 C-17.83340638 0.40743158 -10.44154665 -3.23149364 0 0 Z " fill="#00FF00" transform="translate(491.34765625,64.7265625)"/>
</svg>
