<?xml version="1.0" encoding="UTF-8"?>
<svg version="1.1" xmlns="http://www.w3.org/2000/svg" width="512" height="512">
<path d="M0 0 C1.01790619 0.00215515 2.03581238 0.0043103 3.08456421 0.00653076 C17.69363523 0.05620146 32.02575853 0.30709809 46.375 3.3125 C47.34985352 3.51117676 48.32470703 3.70985352 49.32910156 3.91455078 C97.7109774 14.03517194 141.69928269 35.9516877 177.375 70.3125 C178.3640332 71.26068604 178.3640332 71.26068604 179.37304688 72.22802734 C188.86130305 81.37247479 197.6012044 90.66984009 205.375 101.3125 C206.23306152 102.46355017 207.09113451 103.61459177 207.94921875 104.765625 C213.98736829 112.95680614 219.34595521 121.47054105 224.375 130.3125 C224.73948242 130.94430176 225.10396484 131.57610352 225.47949219 132.22705078 C247.08534998 169.97532572 256.85198095 212.74189997 256.6875 255.9375 C256.68534485 256.95540619 256.6831897 257.97331238 256.68096924 259.02206421 C256.63129854 273.63113523 256.38040191 287.96325853 253.375 302.3125 C253.07698486 303.77478027 253.07698486 303.77478027 252.77294922 305.26660156 C242.65232806 353.6484774 220.7358123 397.63678269 186.375 433.3125 C185.74287598 433.97185547 185.11075195 434.63121094 184.45947266 435.31054688 C175.31502521 444.79880305 166.01765991 453.5387044 155.375 461.3125 C154.22394983 462.17056152 153.07290823 463.02863451 151.921875 463.88671875 C143.73224019 469.92427396 135.22961724 475.30707302 126.375 480.3125 C125.66778809 480.7146875 124.96057617 481.116875 124.23193359 481.53125 C101.09654164 494.5566741 75.92537591 503.30551461 49.9375 508.625 C49.21860596 508.77235596 48.49971191 508.91971191 47.7590332 509.0715332 C33.08339502 511.86090125 18.55831162 512.66142619 3.64770508 512.62817383 C0.70811513 512.6250221 -2.2304558 512.64854926 -5.16992188 512.67382812 C-18.54306192 512.71848737 -31.43916711 511.51301542 -44.625 509.3125 C-46.33055054 509.03031616 -46.33055054 509.03031616 -48.07055664 508.74243164 C-109.33381836 497.7379236 -167.76195468 461.60504511 -204.625 411.3125 C-205.26211914 410.45857666 -205.26211914 410.45857666 -205.91210938 409.58740234 C-212.42768015 400.84658179 -218.26088547 391.80163672 -223.625 382.3125 C-224.0271875 381.60528809 -224.429375 380.89807617 -224.84375 380.16943359 C-237.8691741 357.03404164 -246.61801461 331.86287591 -251.9375 305.875 C-252.08485596 305.15610596 -252.23221191 304.43721191 -252.3840332 303.6965332 C-255.35789088 288.05024391 -255.99800362 272.57681954 -255.9375 256.6875 C-255.93534485 255.66959381 -255.9331897 254.65168762 -255.93096924 253.60293579 C-255.88129854 238.99386477 -255.63040191 224.66174147 -252.625 210.3125 C-252.42632324 209.33764648 -252.22764648 208.36279297 -252.02294922 207.35839844 C-241.90232806 158.9765226 -219.9858123 114.98821731 -185.625 79.3125 C-184.99287598 78.65314453 -184.36075195 77.99378906 -183.70947266 77.31445312 C-174.56502521 67.82619695 -165.26765991 59.0862956 -154.625 51.3125 C-153.47394983 50.45443848 -152.32290823 49.59636549 -151.171875 48.73828125 C-142.98224019 42.70072604 -134.47961724 37.31792698 -125.625 32.3125 C-124.91778809 31.9103125 -124.21057617 31.508125 -123.48193359 31.09375 C-100.34654164 18.0683259 -75.17537591 9.31948539 -49.1875 4 C-48.46860596 3.85264404 -47.74971191 3.70528809 -47.0090332 3.5534668 C-31.36274391 0.57960912 -15.88931954 -0.06050362 0 0 Z M-99.625 68.3125 C-100.61242187 68.82425781 -101.59984375 69.33601563 -102.6171875 69.86328125 C-119.78963258 78.88732817 -134.69303161 90.95071687 -148.625 104.3125 C-149.57375 105.20839844 -150.5225 106.10429688 -151.5 107.02734375 C-190.69043126 144.93740581 -211.64647536 199.67388562 -212.98071289 253.64941406 C-213.23245631 288.40912543 -205.38602377 323.89523268 -188.62988281 354.47070312 C-187.59991617 356.35847483 -186.60787748 358.26324135 -185.6171875 360.171875 C-176.83702505 376.76508568 -165.31920951 391.36914523 -152.18554688 404.72119141 C-150.77866158 406.15580942 -149.39558974 407.61368721 -148.015625 409.07421875 C-141.45206508 415.90589795 -134.20806702 421.66998163 -126.625 427.3125 C-125.61953125 428.06273437 -124.6140625 428.81296875 -123.578125 429.5859375 C-78.29399042 462.0825833 -21.28780078 475.76051296 33.81005859 466.921875 C58.05468867 462.80243343 80.65085712 454.7638138 102.375 443.3125 C103.51453125 442.71953125 104.6540625 442.1265625 105.828125 441.515625 C121.76153225 432.8448871 135.88343817 421.56230602 148.78369141 408.87304688 C150.21830942 407.46616158 151.67618721 406.08308974 153.13671875 404.703125 C159.96839795 398.13956508 165.73248163 390.89556702 171.375 383.3125 C172.12523437 382.30703125 172.87546875 381.3015625 173.6484375 380.265625 C207.34925321 333.30347747 219.30108157 276.12208967 210.375 219.3125 C206.64777477 197.22150845 199.07142841 175.97203367 188.375 156.3125 C187.86324219 155.32507813 187.35148437 154.33765625 186.82421875 153.3203125 C177.80017183 136.14786742 165.73678313 121.24446839 152.375 107.3125 C151.47910156 106.36375 150.58320313 105.415 149.66015625 104.4375 C116.74633704 70.412054 70.95786499 50.14302987 24.375 44.3125 C23.51003906 44.20035156 22.64507812 44.08820312 21.75390625 43.97265625 C-19.86475203 39.56313222 -62.94093262 48.35330325 -99.625 68.3125 Z " fill="#0000BA" transform="translate(255.625,-0.3125)"/>
<path d="M0 0 C14.52 0 29.04 0 44 0 C44 70.62 44 141.24 44 214 C29.48 214 14.96 214 0 214 C0 143.38 0 72.76 0 0 Z " fill="#0000B9" transform="translate(234,192)"/>
<path d="M0 0 C14.52 0 29.04 0 44 0 C44 21.45 44 42.9 44 65 C29.48 65 14.96 65 0 65 C0 43.55 0 22.1 0 0 Z " fill="#0000B9" transform="translate(234,106)"/>
</svg>
