<?xml version="1.0" encoding="UTF-8"?>
<svg version="1.1" xmlns="http://www.w3.org/2000/svg" width="512" height="512">
<path d="M0 0 C2.32419522 1.85861087 2.32419522 1.85861087 4.5546875 1.67578125 C5.98976018 -0.03412498 5.98976018 -0.03412498 7.41796875 -2.26953125 C7.97548828 -3.0996875 8.53300781 -3.92984375 9.10742188 -4.78515625 C9.68814453 -5.66429687 10.26886719 -6.5434375 10.8671875 -7.44921875 C21.18143468 -22.96147272 21.18143468 -22.96147272 25.8671875 -24.19921875 C26.7540625 -24.24046875 27.6409375 -24.28171875 28.5546875 -24.32421875 C31.56757378 -20.88629895 33.21979764 -18.09888907 34.42993164 -13.69873047 C34.74027847 -12.59342987 35.05062531 -11.48812927 35.37037659 -10.34933472 C35.69030075 -9.16284332 36.01022491 -7.97635193 36.33984375 -6.75390625 C36.68220566 -5.52189484 37.02456757 -4.28988342 37.37730408 -3.02053833 C38.28608252 0.25041541 39.18029435 3.52517831 40.07147217 6.80096436 C40.97178047 10.10021517 41.88590375 13.39562876 42.79882812 16.69140625 C44.44312843 22.63591979 46.07772283 28.58300534 47.69485474 34.53497314 C48.26411022 36.61435685 48.8426647 38.69121909 49.43087769 40.76531982 C49.83718918 42.20769012 49.83718918 42.20769012 50.25170898 43.67919922 C50.49138901 44.51788544 50.73106903 45.35657166 50.97801208 46.22067261 C52.3616956 52.11149658 52.56395817 56.79180932 49.6796875 62.17578125 C43.79232794 68.05085975 31.65481197 67.28013496 23.890625 67.96484375 C22.69974274 68.07299408 21.50886047 68.18114441 20.28189087 68.29257202 C17.77264644 68.51876339 15.26314828 68.7421557 12.75341797 68.96289062 C8.96101368 69.29801306 5.16999869 69.64648008 1.37890625 69.99609375 C-33.38392649 73.13920392 -33.38392649 73.13920392 -37.34741211 70.32543945 C-38.4453125 68.67578125 -38.4453125 68.67578125 -38.42578125 65.9453125 C-37.192426 61.83249042 -35.21815694 58.84512789 -32.7578125 55.36328125 C-32.08322998 54.38186157 -32.08322998 54.38186157 -31.39501953 53.38061523 C-30.49884891 52.07690419 -29.59886693 50.77580368 -28.69482422 49.47753906 C-27.03658712 47.08641171 -25.4263589 44.66468228 -23.8203125 42.23828125 C-23.02864583 41.05078125 -22.23697917 39.86328125 -21.4453125 38.67578125 C-45.53987959 18.33027394 -80.08939286 9.48876391 -110.4453125 4.67578125 C-111.15429688 4.56306885 -111.86328125 4.45035645 -112.59375 4.33422852 C-167.52356526 -3.02811305 -224.43379535 13.76285929 -268.30078125 46.828125 C-274.26370499 51.49677072 -279.92989538 56.48884465 -285.4453125 61.67578125 C-286.28304199 62.46251221 -286.28304199 62.46251221 -287.13769531 63.26513672 C-326.40948409 100.45609107 -350.16707073 153.64460657 -351.76171875 207.73046875 C-352.65194359 246.33205121 -344.73650176 283.54418299 -326.4453125 317.67578125 C-326.10274414 318.33143066 -325.76017578 318.98708008 -325.40722656 319.66259766 C-319.74710246 330.47380395 -313.0595606 340.1504964 -305.4453125 349.67578125 C-304.98898437 350.24925293 -304.53265625 350.82272461 -304.0625 351.41357422 C-293.02841025 365.16182421 -280.65373045 377.24354915 -266.4453125 387.67578125 C-265.445 388.42085938 -264.4446875 389.1659375 -263.4140625 389.93359375 C-240.18612243 406.6361589 -213.67144868 418.9067185 -185.6640625 424.9765625 C-184.25616455 425.28364136 -184.25616455 425.28364136 -182.81982422 425.59692383 C-181.0504907 425.96942336 -179.27606093 426.31885502 -177.49658203 426.6394043 C-169.90709985 428.20434735 -165.09997315 432.19153915 -160.4453125 438.30078125 C-158.64608717 444.37316673 -158.10821347 451.09875563 -160.359375 457.12109375 C-163.59866456 462.61743668 -167.74379326 466.51042001 -173.6328125 469.05078125 C-182.47758809 470.50074446 -191.3201214 468.2549613 -199.8828125 466.05078125 C-200.9241333 465.78499268 -201.9654541 465.5192041 -203.03833008 465.24536133 C-238.49500486 455.95902503 -270.966542 439.70868701 -299.4453125 416.67578125 C-299.97914551 416.2463623 -300.51297852 415.81694336 -301.06298828 415.37451172 C-316.8454537 402.56862588 -331.50174467 388.14467179 -343.4453125 371.67578125 C-344.30023064 370.5269338 -345.15570679 369.37850141 -346.01171875 368.23046875 C-352.05482448 360.03829503 -357.41445849 351.52092113 -362.4453125 342.67578125 C-362.80979492 342.04397949 -363.17427734 341.41217773 -363.54980469 340.76123047 C-376.97327257 317.30866676 -385.32630873 291.55997478 -390.7578125 265.17578125 C-390.90524902 264.46059326 -391.05268555 263.74540527 -391.20458984 263.00854492 C-394.16238348 247.55207933 -394.81907328 232.24991997 -394.7578125 216.55078125 C-394.75565735 215.55655151 -394.7535022 214.56232178 -394.75128174 213.53796387 C-394.70094564 199.0696817 -394.40382954 184.88889054 -391.4453125 170.67578125 C-391.24663574 169.69947754 -391.04795898 168.72317383 -390.84326172 167.71728516 C-381.71852013 124.10307086 -363.2095126 83.10030369 -333.4453125 49.67578125 C-332.27842847 48.32180188 -331.11173507 46.96765817 -329.9453125 45.61328125 C-328.7826316 44.29724915 -327.6154625 42.98517666 -326.4453125 41.67578125 C-325.16333984 40.2371875 -325.16333984 40.2371875 -323.85546875 38.76953125 C-318.6848757 33.01404575 -313.44307505 27.57948939 -307.4453125 22.67578125 C-306.27057362 21.68911122 -305.09612305 20.70209787 -303.921875 19.71484375 C-295.14171873 12.39298333 -286.14581987 5.72415942 -276.4453125 -0.32421875 C-275.7951416 -0.73236816 -275.1449707 -1.14051758 -274.47509766 -1.56103516 C-192.58170245 -52.5430055 -90.93824382 -51.47826446 0 0 Z " fill="#FFFF00" transform="translate(394.4453125,41.32421875)"/>
<path d="M0 0 C4.96093413 2.80807592 7.59728347 5.76436944 9.43502808 11.18762207 C10.8728206 17.43002469 10.57466746 23.81736493 10.53955078 30.18554688 C10.53898587 31.62513216 10.53930479 33.06471802 10.54043579 34.50430298 C10.54100718 38.39218613 10.52928764 42.27994467 10.51528788 46.167799 C10.50274475 50.23836502 10.5016072 54.30893423 10.49923706 58.3795166 C10.49303279 66.07870888 10.47663628 73.77784403 10.45653808 81.4770112 C10.43414624 90.24606658 10.4231774 99.01512475 10.41314721 107.78420162 C10.39226908 125.81450007 10.35711366 143.84474544 10.3125 161.875 C11.2300708 162.16890625 12.1476416 162.4628125 13.09301758 162.765625 C16.95160694 164.09522461 20.42412334 165.93686846 24 167.875 C33.38830214 172.88894725 42.84309845 177.76672133 52.3125 182.625 C55.38303428 184.20139128 58.45330694 185.77829134 61.5234375 187.35546875 C62.27719162 187.74266586 63.03094574 188.12986298 63.80754089 188.52879333 C71.5981999 192.53262023 79.37380937 196.56518657 87.14575195 200.60522461 C93.33939611 203.82253928 99.54189242 207.02146016 105.75390625 210.203125 C107.22121841 210.95559512 108.68850356 211.70811794 110.15576172 212.46069336 C112.28602022 213.5533167 114.41671592 214.64501463 116.54937744 215.73294067 C121.1540287 218.0819669 125.74112002 220.46186085 130.3125 222.875 C131.0263385 223.24977478 131.740177 223.62454956 132.47564697 224.01068115 C134.65487812 225.16283863 136.82262705 226.33427161 138.98828125 227.51171875 C139.64845749 227.85902542 140.30863373 228.20633209 140.98881531 228.56416321 C146.02675474 231.34507131 149.68626374 234.62252748 152.3125 239.875 C153.03468508 247.01397709 152.76210235 252.13735486 148.3125 257.875 C143.54332531 261.57354364 139.69446438 263.2704561 133.59619141 263.17871094 C129.18460578 262.59200872 125.42753588 260.49936605 121.5 258.5 C120.5733252 258.04302734 119.64665039 257.58605469 118.69189453 257.11523438 C111.40472048 253.49715308 104.20363843 249.71553099 97.0234375 245.890625 C89.49243243 241.89299293 81.89801821 238.01781299 74.3125 234.125 C71.24721936 232.55112472 68.18213838 230.9768611 65.1171875 229.40234375 C63.98790833 228.82222786 63.98790833 228.82222786 62.83581543 228.23039246 C53.85166984 223.61321391 44.8867342 218.95918217 35.921875 214.3046875 C31.30938167 211.91000477 26.69474437 209.51952669 22.078125 207.1328125 C21.46093597 206.81372421 20.84374695 206.49463593 20.20785522 206.1658783 C17.28739228 204.65613532 14.36672184 203.14679602 11.44580078 201.63793945 C3.39823558 197.4783028 -4.64032546 193.30149849 -12.67724609 189.12133789 C-13.83427536 188.51961006 -14.99130463 187.91788223 -16.18339539 187.29792023 C-19.01812704 185.82367138 -21.85282777 184.3493631 -24.6875 182.875 C-24.75759565 160.83067096 -24.81049093 138.7863603 -24.84293652 116.74194241 C-24.8584023 106.50622773 -24.87948634 96.27058232 -24.91381836 86.03491211 C-24.9437295 77.11301488 -24.9630771 68.19116782 -24.96976548 59.26922184 C-24.97367482 54.54555714 -24.98285639 49.82203596 -25.00469017 45.09841728 C-25.02508237 40.65055788 -25.03132826 36.20290087 -25.02682304 31.75499916 C-25.02764702 30.1244077 -25.0335964 28.49380934 -25.04511642 26.86325836 C-25.0601037 24.63213873 -25.05643142 22.40177723 -25.04826355 20.17063904 C-25.05102893 18.92345313 -25.05379431 17.67626722 -25.05664349 16.3912878 C-24.55248301 11.58889145 -23.21107531 7.61326093 -19.96875 3.9140625 C-19.3809375 3.44742188 -18.793125 2.98078125 -18.1875 2.5 C-17.5996875 2.01789063 -17.011875 1.53578125 -16.40625 1.0390625 C-11.35449314 -2.38235465 -5.52154931 -1.68454047 0 0 Z " fill="#FFFF00" transform="translate(250.6875,92.125)"/>
<path d="M0 0 C4.32715646 3.15715278 7.09713105 6.69310607 9.2578125 11.578125 C10.98258584 23.07661395 7.21316214 34.20910286 1.8203125 44.328125 C-1.4163709 48.60992144 -4.70253621 50.67161331 -9.5546875 52.828125 C-17.42360259 53.9134926 -23.71435417 53.01866094 -30.1796875 48.328125 C-34.72298995 43.92982156 -37.42088288 39.06702948 -37.7421875 32.703125 C-37.64736228 26.9108844 -35.94618255 21.90499437 -33.9921875 16.515625 C-33.55531616 15.29721924 -33.55531616 15.29721924 -33.10961914 14.05419922 C-30.44488014 7.11544468 -27.09884678 1.69899747 -20.1796875 -1.671875 C-13.2944482 -3.73019917 -6.29114341 -3.61677071 0 0 Z " fill="#FFFF00" transform="translate(492.1796875,309.671875)"/>
<path d="M0 0 C4.82441244 2.91775842 8.89506983 7.94115411 10.95703125 13.18359375 C12.11016809 22.56959129 10.45255139 28.48016221 4.93359375 35.90625 C2.69043063 38.7503971 0.36968928 41.4822416 -2.04296875 44.18359375 C-2.91115234 45.15619141 -2.91115234 45.15619141 -3.796875 46.1484375 C-8.45157643 50.73584205 -13.61180987 51.88619912 -20.04296875 52.18359375 C-26.43723352 51.82079859 -31.64029463 48.74211474 -36.04296875 44.18359375 C-39.72874967 38.67562901 -41.2652571 32.72839226 -40.04296875 26.18359375 C-37.97382184 19.68211636 -33.94933142 14.50671297 -29.66796875 9.30859375 C-29.22219482 8.76106445 -28.7764209 8.21353516 -28.31713867 7.64941406 C-20.95485162 -0.91943699 -10.71477819 -4.41694012 0 0 Z " fill="#FFFF00" transform="translate(454.04296875,379.81640625)"/>
<path d="M0 0 C4.96600512 2.83484503 8.23507897 6.88967827 11.125 11.75 C12.85181539 19.1753062 12.21597015 25.4230901 8.484375 32.12109375 C5.32064109 36.34653116 1.2570386 38.80518401 -3.25 41.4375 C-4.15492188 42.00726563 -5.05984375 42.57703125 -5.9921875 43.1640625 C-12.79370586 47.22955931 -18.68773478 49.32344372 -26.62890625 48.05859375 C-32.49356222 46.48079291 -36.65552672 43.31642495 -40.25 38.4375 C-43.12484644 32.67815998 -42.97347163 26.72789546 -42.25 20.4375 C-38.56697565 9.85094628 -26.4565899 4.38859946 -17.25 -0.5625 C-11.56978516 -2.45590495 -5.50898331 -2.48381907 0 0 Z " fill="#FFFF00" transform="translate(395.25,434.5625)"/>
<path d="M0 0 C7.90685164 6.58904303 12.20839552 18.20748022 13.875 28.1875 C14.10498644 35.20208641 12.51728431 40.50600557 8 46 C2.35362319 50.86983548 -2.2784908 52.32427227 -9.6953125 52.21484375 C-14.80887556 51.73815567 -19.6887974 49.28829027 -23.5234375 45.89453125 C-27.13928442 41.25515095 -28.99121693 35.47260841 -31 30 C-31.36738281 29.01902344 -31.73476563 28.03804687 -32.11328125 27.02734375 C-34.31546041 20.28498906 -34.19080509 14.7558817 -32 8 C-28.93694328 1.98328145 -24.89291808 -0.85374944 -18.6875 -3.3125 C-11.87968542 -4.58175357 -5.91088572 -3.76147273 0 0 Z " fill="#FFFF00" transform="translate(487,153)"/>
<path d="M0 0 C4.41018108 3.54071545 6.64778707 8.62259509 8 14 C8.59505784 19.55387314 7.59720829 24.1044685 5 29 C2.5625 31.8125 2.5625 31.8125 0 34 C-0.84111328 34.7425 -0.84111328 34.7425 -1.69921875 35.5 C-10.24021566 41.06832396 -24.23048325 42.44181163 -34 41 C-40.00181031 38.71893814 -43.7478973 34.65052026 -47.08203125 29.24609375 C-49.40173154 23.57023133 -48.74287478 16.18952568 -46.8125 10.5 C-41.161923 2.70610069 -35.25489518 -0.26107713 -26.125 -2.1875 C-25.34769531 -2.36474609 -24.57039063 -2.54199219 -23.76953125 -2.72460938 C-14.94027181 -4.64627172 -8.0335932 -4.39187947 0 0 Z " fill="#FFFF00" transform="translate(326,469)"/>
<path d="M0 0 C5.34047778 3.14211063 8.61362958 7.48563865 10.5625 13.375 C11.0272721 17.80311157 10.97866215 22.23737273 11 26.6875 C11.03287109 27.88568359 11.06574219 29.08386719 11.09960938 30.31835938 C11.1436049 37.57762178 10.60771676 42.89551795 5.5625 48.375 C-0.21162407 53.42367558 -5.07425639 54.7475362 -12.5859375 54.6484375 C-19.44774927 53.99045555 -23.80767095 50.5289648 -28.2109375 45.44921875 C-31.8368915 39.3174303 -31.77460412 32.86109863 -31.75 25.9375 C-31.76611328 25.03451172 -31.78222656 24.13152344 -31.79882812 23.20117188 C-31.80404692 15.9940216 -30.87294014 10.18512324 -26 4.5625 C-18.46832938 -1.86697492 -9.54886143 -4.39174734 0 0 Z " fill="#FFFF00" transform="translate(501.4375,229.625)"/>
</svg>
